# xmcd CD database file
#
# Track frame offsets:
#	150
#	18070
#	42147
#	70087
#	87757
#	115522
#	140607
#	159852
#	179082
#	194257
#	217057
#	238417
#	260917
#	283122
#	300970
#
# Disc length: 4295 seconds
#
# Revision: 1
# Processed by: cddbd v1.4PL0 Copyright (c) Steve Scherf et al.
# Submitted via: CDex 1.51
#
DISCID=d210c50f
DTITLE=Various Artist - In Love With Blues 2
DYEAR=1997
DGENRE=Blues
TTITLE0=Johnny Winter - Kiss Tomorrow Goodbye
TTITLE1=Roy Buchanan, Featuring Kanika Kress - These Arms Of Mine
TTITLE2=Tinsley Ellis - Everyday
TTITLE3=Fenton Robinson - You Don't Know What Love Is
TTITLE4=Living Chicago Blues ег - Have You Ever Loved A Woman?
TTITLE5=Albert Collins, Robert Cray, Johnny Copeland - The Dream
TTITLE6=Ann Rabson - Another You
TTITLE7=Lonnie Mack - Tough On Me, Tough On You
TTITLE8=Katie Webster - Sea Of Love
TTITLE9=Lonnie Brooks - Too Little, Too Late
TTITLE10=Koko Taylor - Nothing Takes The Place Of You
TTITLE11=Luther Allison - Think With You Heart
TTITLE12=Charles Brown - Save Your Love For Me
TTITLE13=Kenny Neal - I Been Missing You, Too
TTITLE14=Elvin Bishop - Fooled Around Fell In Love
EXTD=YEAR: 1997
EXTT0=
EXTT1=
EXTT2=
EXTT3=
EXTT4=
EXTT5=
EXTT6=
EXTT7=
EXTT8=
EXTT9=
EXTT10=
EXTT11=
EXTT12=
EXTT13=
EXTT14=
PLAYORDER=
